<mxfile host="app.diagrams.net" modified="2021-03-16T12:42:22.812Z" agent="5.0 (Windows)" etag="kaN3lc2kja_Z50z-erwZ" version="14.0.5" type="github">
  <diagram id="R7q9NGi8yo0SGPrOsdSs" name="Page-1">
    <mxGraphModel dx="652" dy="949" grid="1" gridSize="10" guides="1" tooltips="1" connect="1" arrows="1" fold="1" page="1" pageScale="1" pageWidth="827" pageHeight="1169" math="0" shadow="0">
      <root>
        <mxCell id="0" />
        <mxCell id="1" parent="0" />
        <mxCell id="-9iWVsmMMzDZbxHCKy6C-8" value="bob:Player" style="swimlane;fontStyle=4;childLayout=stackLayout;horizontal=1;startSize=26;fillColor=none;horizontalStack=0;resizeParent=1;resizeParentMax=0;resizeLast=0;collapsible=1;marginBottom=0;" vertex="1" parent="1">
          <mxGeometry x="50" y="210" width="140" height="104" as="geometry" />
        </mxCell>
        <mxCell id="-9iWVsmMMzDZbxHCKy6C-9" value="- name: bob" style="text;strokeColor=none;fillColor=none;align=left;verticalAlign=top;spacingLeft=4;spacingRight=4;overflow=hidden;rotatable=0;points=[[0,0.5],[1,0.5]];portConstraint=eastwest;" vertex="1" parent="-9iWVsmMMzDZbxHCKy6C-8">
          <mxGeometry y="26" width="140" height="26" as="geometry" />
        </mxCell>
        <mxCell id="-9iWVsmMMzDZbxHCKy6C-10" value="- symbol: none" style="text;strokeColor=none;fillColor=none;align=left;verticalAlign=top;spacingLeft=4;spacingRight=4;overflow=hidden;rotatable=0;points=[[0,0.5],[1,0.5]];portConstraint=eastwest;" vertex="1" parent="-9iWVsmMMzDZbxHCKy6C-8">
          <mxGeometry y="52" width="140" height="26" as="geometry" />
        </mxCell>
        <mxCell id="-9iWVsmMMzDZbxHCKy6C-11" value="- won: 1" style="text;strokeColor=none;fillColor=none;align=left;verticalAlign=top;spacingLeft=4;spacingRight=4;overflow=hidden;rotatable=0;points=[[0,0.5],[1,0.5]];portConstraint=eastwest;" vertex="1" parent="-9iWVsmMMzDZbxHCKy6C-8">
          <mxGeometry y="78" width="140" height="26" as="geometry" />
        </mxCell>
        <mxCell id="-9iWVsmMMzDZbxHCKy6C-12" value="alice:Player" style="swimlane;fontStyle=4;childLayout=stackLayout;horizontal=1;startSize=26;fillColor=none;horizontalStack=0;resizeParent=1;resizeParentMax=0;resizeLast=0;collapsible=1;marginBottom=0;" vertex="1" parent="1">
          <mxGeometry x="50" y="80" width="140" height="104" as="geometry" />
        </mxCell>
        <mxCell id="-9iWVsmMMzDZbxHCKy6C-13" value="- name: alice" style="text;strokeColor=none;fillColor=none;align=left;verticalAlign=top;spacingLeft=4;spacingRight=4;overflow=hidden;rotatable=0;points=[[0,0.5],[1,0.5]];portConstraint=eastwest;" vertex="1" parent="-9iWVsmMMzDZbxHCKy6C-12">
          <mxGeometry y="26" width="140" height="26" as="geometry" />
        </mxCell>
        <mxCell id="-9iWVsmMMzDZbxHCKy6C-15" value="- won: 1" style="text;strokeColor=none;fillColor=none;align=left;verticalAlign=top;spacingLeft=4;spacingRight=4;overflow=hidden;rotatable=0;points=[[0,0.5],[1,0.5]];portConstraint=eastwest;" vertex="1" parent="-9iWVsmMMzDZbxHCKy6C-12">
          <mxGeometry y="52" width="140" height="26" as="geometry" />
        </mxCell>
        <mxCell id="-9iWVsmMMzDZbxHCKy6C-14" value="- symbol: none" style="text;strokeColor=none;fillColor=none;align=left;verticalAlign=top;spacingLeft=4;spacingRight=4;overflow=hidden;rotatable=0;points=[[0,0.5],[1,0.5]];portConstraint=eastwest;" vertex="1" parent="-9iWVsmMMzDZbxHCKy6C-12">
          <mxGeometry y="78" width="140" height="26" as="geometry" />
        </mxCell>
        <mxCell id="-9iWVsmMMzDZbxHCKy6C-16" value="game:RPSwL" style="swimlane;fontStyle=4;childLayout=stackLayout;horizontal=1;startSize=26;fillColor=none;horizontalStack=0;resizeParent=1;resizeParentMax=0;resizeLast=0;collapsible=1;marginBottom=0;" vertex="1" parent="1">
          <mxGeometry x="360" y="80" width="140" height="78" as="geometry" />
        </mxCell>
        <mxCell id="-9iWVsmMMzDZbxHCKy6C-17" value="- round: 3" style="text;strokeColor=none;fillColor=none;align=left;verticalAlign=top;spacingLeft=4;spacingRight=4;overflow=hidden;rotatable=0;points=[[0,0.5],[1,0.5]];portConstraint=eastwest;" vertex="1" parent="-9iWVsmMMzDZbxHCKy6C-16">
          <mxGeometry y="26" width="140" height="26" as="geometry" />
        </mxCell>
        <mxCell id="-9iWVsmMMzDZbxHCKy6C-18" value="- maxRounds:3" style="text;strokeColor=none;fillColor=none;align=left;verticalAlign=top;spacingLeft=4;spacingRight=4;overflow=hidden;rotatable=0;points=[[0,0.5],[1,0.5]];portConstraint=eastwest;" vertex="1" parent="-9iWVsmMMzDZbxHCKy6C-16">
          <mxGeometry y="52" width="140" height="26" as="geometry" />
        </mxCell>
        <mxCell id="-9iWVsmMMzDZbxHCKy6C-24" value="" style="endArrow=none;html=1;entryX=-0.007;entryY=0.077;entryDx=0;entryDy=0;entryPerimeter=0;exitX=1;exitY=0.5;exitDx=0;exitDy=0;" edge="1" parent="1" source="-9iWVsmMMzDZbxHCKy6C-8" target="-9iWVsmMMzDZbxHCKy6C-18">
          <mxGeometry width="50" height="50" relative="1" as="geometry">
            <mxPoint x="180" y="310" as="sourcePoint" />
            <mxPoint x="290" y="260" as="targetPoint" />
            <Array as="points" />
          </mxGeometry>
        </mxCell>
        <mxCell id="-9iWVsmMMzDZbxHCKy6C-25" value="" style="endArrow=none;html=1;entryX=0;entryY=0.5;entryDx=0;entryDy=0;" edge="1" parent="1" target="-9iWVsmMMzDZbxHCKy6C-17">
          <mxGeometry width="50" height="50" relative="1" as="geometry">
            <mxPoint x="190" y="140" as="sourcePoint" />
            <mxPoint x="240" y="90" as="targetPoint" />
          </mxGeometry>
        </mxCell>
        <mxCell id="-9iWVsmMMzDZbxHCKy6C-26" value="player" style="text;html=1;strokeColor=none;fillColor=none;align=center;verticalAlign=middle;whiteSpace=wrap;rounded=0;" vertex="1" parent="1">
          <mxGeometry x="200" y="268" width="40" height="20" as="geometry" />
        </mxCell>
        <mxCell id="-9iWVsmMMzDZbxHCKy6C-27" value="player" style="text;html=1;strokeColor=none;fillColor=none;align=center;verticalAlign=middle;whiteSpace=wrap;rounded=0;" vertex="1" parent="1">
          <mxGeometry x="200" y="106" width="40" height="20" as="geometry" />
        </mxCell>
        <mxCell id="-9iWVsmMMzDZbxHCKy6C-28" value="game" style="text;html=1;strokeColor=none;fillColor=none;align=center;verticalAlign=middle;whiteSpace=wrap;rounded=0;" vertex="1" parent="1">
          <mxGeometry x="310" y="90" width="40" height="20" as="geometry" />
        </mxCell>
        <mxCell id="-9iWVsmMMzDZbxHCKy6C-29" value="game" style="text;html=1;strokeColor=none;fillColor=none;align=center;verticalAlign=middle;whiteSpace=wrap;rounded=0;" vertex="1" parent="1">
          <mxGeometry x="320" y="170" width="40" height="20" as="geometry" />
        </mxCell>
      </root>
    </mxGraphModel>
  </diagram>
</mxfile>
